<mxfile host="app.diagrams.net" agent="Mozilla/5.0 (X11; Linux x86_64) AppleWebKit/537.36 (KHTML, like Gecko) Chrome/134.0.0.0 Safari/537.36" version="26.1.3">
  <diagram id="C5RBs43oDa-KdzZeNtuy" name="Page-1">
    <mxGraphModel dx="1434" dy="716" grid="1" gridSize="10" guides="1" tooltips="1" connect="1" arrows="1" fold="1" page="1" pageScale="1" pageWidth="827" pageHeight="1169" math="0" shadow="0">
      <root>
        <mxCell id="WIyWlLk6GJQsqaUBKTNV-0" />
        <mxCell id="WIyWlLk6GJQsqaUBKTNV-1" parent="WIyWlLk6GJQsqaUBKTNV-0" />
        <mxCell id="UQJnZ-6eAhfQO-VNr-vx-52" value="" style="shape=folder;fontStyle=1;tabWidth=80;tabHeight=30;tabPosition=left;html=1;boundedLbl=1;whiteSpace=wrap;" parent="WIyWlLk6GJQsqaUBKTNV-1" vertex="1">
          <mxGeometry x="30" y="860" width="1090" height="650" as="geometry" />
        </mxCell>
        <mxCell id="riKNYvi7gMaj98JtQU5Q-0" value="" style="shape=folder;fontStyle=1;spacingTop=10;tabWidth=40;tabHeight=14;tabPosition=left;html=1;whiteSpace=wrap;" parent="WIyWlLk6GJQsqaUBKTNV-1" vertex="1">
          <mxGeometry x="30" y="80" width="1090" height="710" as="geometry" />
        </mxCell>
        <mxCell id="riKNYvi7gMaj98JtQU5Q-6" value="Model" style="text;html=1;align=center;verticalAlign=middle;resizable=0;points=[];autosize=1;strokeColor=none;fillColor=none;strokeWidth=5;fontSize=20;fontStyle=7" parent="WIyWlLk6GJQsqaUBKTNV-1" vertex="1">
          <mxGeometry x="100" y="113" width="80" height="40" as="geometry" />
        </mxCell>
        <mxCell id="riKNYvi7gMaj98JtQU5Q-7" value="User" style="swimlane;fontStyle=1;align=center;verticalAlign=top;childLayout=stackLayout;horizontal=1;startSize=26;horizontalStack=0;resizeParent=1;resizeParentMax=0;resizeLast=0;collapsible=1;marginBottom=0;whiteSpace=wrap;html=1;" parent="WIyWlLk6GJQsqaUBKTNV-1" vertex="1">
          <mxGeometry x="40" y="590" width="160" height="144" as="geometry" />
        </mxCell>
        <mxCell id="riKNYvi7gMaj98JtQU5Q-8" value="&lt;div&gt;-id&lt;/div&gt;-name&lt;div&gt;-email&lt;/div&gt;&lt;div&gt;-password Hash&lt;/div&gt;" style="text;strokeColor=none;fillColor=none;align=left;verticalAlign=top;spacingLeft=4;spacingRight=4;overflow=hidden;rotatable=0;points=[[0,0.5],[1,0.5]];portConstraint=eastwest;whiteSpace=wrap;html=1;" parent="riKNYvi7gMaj98JtQU5Q-7" vertex="1">
          <mxGeometry y="26" width="160" height="84" as="geometry" />
        </mxCell>
        <mxCell id="riKNYvi7gMaj98JtQU5Q-9" value="" style="line;strokeWidth=1;fillColor=none;align=left;verticalAlign=middle;spacingTop=-1;spacingLeft=3;spacingRight=3;rotatable=0;labelPosition=right;points=[];portConstraint=eastwest;strokeColor=inherit;" parent="riKNYvi7gMaj98JtQU5Q-7" vertex="1">
          <mxGeometry y="110" width="160" height="8" as="geometry" />
        </mxCell>
        <mxCell id="riKNYvi7gMaj98JtQU5Q-10" value="-getIdentity()" style="text;strokeColor=none;fillColor=none;align=left;verticalAlign=top;spacingLeft=4;spacingRight=4;overflow=hidden;rotatable=0;points=[[0,0.5],[1,0.5]];portConstraint=eastwest;whiteSpace=wrap;html=1;" parent="riKNYvi7gMaj98JtQU5Q-7" vertex="1">
          <mxGeometry y="118" width="160" height="26" as="geometry" />
        </mxCell>
        <mxCell id="riKNYvi7gMaj98JtQU5Q-11" value="Vending Machine" style="swimlane;fontStyle=1;align=center;verticalAlign=top;childLayout=stackLayout;horizontal=1;startSize=26;horizontalStack=0;resizeParent=1;resizeParentMax=0;resizeLast=0;collapsible=1;marginBottom=0;whiteSpace=wrap;html=1;" parent="WIyWlLk6GJQsqaUBKTNV-1" vertex="1">
          <mxGeometry x="350" y="113" width="160" height="200" as="geometry" />
        </mxCell>
        <mxCell id="riKNYvi7gMaj98JtQU5Q-12" value="-serialNumber&lt;div&gt;-location&lt;/div&gt;&lt;div&gt;-status&lt;/div&gt;&lt;div&gt;-modelNumber&lt;/div&gt;&lt;div&gt;-inventory&lt;/div&gt;" style="text;strokeColor=none;fillColor=none;align=left;verticalAlign=top;spacingLeft=4;spacingRight=4;overflow=hidden;rotatable=0;points=[[0,0.5],[1,0.5]];portConstraint=eastwest;whiteSpace=wrap;html=1;" parent="riKNYvi7gMaj98JtQU5Q-11" vertex="1">
          <mxGeometry y="26" width="160" height="84" as="geometry" />
        </mxCell>
        <mxCell id="riKNYvi7gMaj98JtQU5Q-13" value="" style="line;strokeWidth=1;fillColor=none;align=left;verticalAlign=middle;spacingTop=-1;spacingLeft=3;spacingRight=3;rotatable=0;labelPosition=right;points=[];portConstraint=eastwest;strokeColor=inherit;" parent="riKNYvi7gMaj98JtQU5Q-11" vertex="1">
          <mxGeometry y="110" width="160" height="8" as="geometry" />
        </mxCell>
        <mxCell id="riKNYvi7gMaj98JtQU5Q-14" value="&lt;div&gt;-VendingMachine(builder)&lt;/div&gt;-acceptConnectRequest()&lt;div&gt;-balanceCheck()&lt;/div&gt;&lt;div&gt;-notifyServer()&lt;/div&gt;&lt;div&gt;&lt;br&gt;&lt;/div&gt;" style="text;strokeColor=none;fillColor=none;align=left;verticalAlign=top;spacingLeft=4;spacingRight=4;overflow=hidden;rotatable=0;points=[[0,0.5],[1,0.5]];portConstraint=eastwest;whiteSpace=wrap;html=1;" parent="riKNYvi7gMaj98JtQU5Q-11" vertex="1">
          <mxGeometry y="118" width="160" height="82" as="geometry" />
        </mxCell>
        <mxCell id="riKNYvi7gMaj98JtQU5Q-15" value="Inventory" style="swimlane;fontStyle=1;align=center;verticalAlign=top;childLayout=stackLayout;horizontal=1;startSize=26;horizontalStack=0;resizeParent=1;resizeParentMax=0;resizeLast=0;collapsible=1;marginBottom=0;whiteSpace=wrap;html=1;" parent="WIyWlLk6GJQsqaUBKTNV-1" vertex="1">
          <mxGeometry x="650" y="128" width="160" height="114" as="geometry" />
        </mxCell>
        <mxCell id="riKNYvi7gMaj98JtQU5Q-16" value="-items&lt;div&gt;-slotsNumber&lt;/div&gt;" style="text;strokeColor=none;fillColor=none;align=left;verticalAlign=top;spacingLeft=4;spacingRight=4;overflow=hidden;rotatable=0;points=[[0,0.5],[1,0.5]];portConstraint=eastwest;whiteSpace=wrap;html=1;" parent="riKNYvi7gMaj98JtQU5Q-15" vertex="1">
          <mxGeometry y="26" width="160" height="54" as="geometry" />
        </mxCell>
        <mxCell id="riKNYvi7gMaj98JtQU5Q-17" value="" style="line;strokeWidth=1;fillColor=none;align=left;verticalAlign=middle;spacingTop=-1;spacingLeft=3;spacingRight=3;rotatable=0;labelPosition=right;points=[];portConstraint=eastwest;strokeColor=inherit;" parent="riKNYvi7gMaj98JtQU5Q-15" vertex="1">
          <mxGeometry y="80" width="160" height="8" as="geometry" />
        </mxCell>
        <mxCell id="riKNYvi7gMaj98JtQU5Q-18" value="-deployItem()&lt;div&gt;&lt;br&gt;&lt;/div&gt;" style="text;strokeColor=none;fillColor=none;align=left;verticalAlign=top;spacingLeft=4;spacingRight=4;overflow=hidden;rotatable=0;points=[[0,0.5],[1,0.5]];portConstraint=eastwest;whiteSpace=wrap;html=1;" parent="riKNYvi7gMaj98JtQU5Q-15" vertex="1">
          <mxGeometry y="88" width="160" height="26" as="geometry" />
        </mxCell>
        <mxCell id="riKNYvi7gMaj98JtQU5Q-19" value="Item" style="swimlane;fontStyle=1;align=center;verticalAlign=top;childLayout=stackLayout;horizontal=1;startSize=26;horizontalStack=0;resizeParent=1;resizeParentMax=0;resizeLast=0;collapsible=1;marginBottom=0;whiteSpace=wrap;html=1;" parent="WIyWlLk6GJQsqaUBKTNV-1" vertex="1">
          <mxGeometry x="900" y="120" width="160" height="130" as="geometry" />
        </mxCell>
        <mxCell id="riKNYvi7gMaj98JtQU5Q-20" value="&lt;div&gt;-itemName&lt;/div&gt;-itemType&lt;div&gt;-itemDescription&lt;/div&gt;&lt;div&gt;--itemPrice&lt;/div&gt;" style="text;strokeColor=none;fillColor=none;align=left;verticalAlign=top;spacingLeft=4;spacingRight=4;overflow=hidden;rotatable=0;points=[[0,0.5],[1,0.5]];portConstraint=eastwest;whiteSpace=wrap;html=1;" parent="riKNYvi7gMaj98JtQU5Q-19" vertex="1">
          <mxGeometry y="26" width="160" height="64" as="geometry" />
        </mxCell>
        <mxCell id="riKNYvi7gMaj98JtQU5Q-21" value="" style="line;strokeWidth=1;fillColor=none;align=left;verticalAlign=middle;spacingTop=-1;spacingLeft=3;spacingRight=3;rotatable=0;labelPosition=right;points=[];portConstraint=eastwest;strokeColor=inherit;" parent="riKNYvi7gMaj98JtQU5Q-19" vertex="1">
          <mxGeometry y="90" width="160" height="40" as="geometry" />
        </mxCell>
        <mxCell id="riKNYvi7gMaj98JtQU5Q-23" value="Customer" style="swimlane;fontStyle=1;align=center;verticalAlign=top;childLayout=stackLayout;horizontal=1;startSize=26;horizontalStack=0;resizeParent=1;resizeParentMax=0;resizeLast=0;collapsible=1;marginBottom=0;whiteSpace=wrap;html=1;" parent="WIyWlLk6GJQsqaUBKTNV-1" vertex="1">
          <mxGeometry x="220" y="450" width="160" height="130" as="geometry" />
        </mxCell>
        <mxCell id="riKNYvi7gMaj98JtQU5Q-24" value="-balance&lt;div&gt;-isActive&lt;/div&gt;&lt;div&gt;&lt;br&gt;&lt;/div&gt;" style="text;strokeColor=none;fillColor=none;align=left;verticalAlign=top;spacingLeft=4;spacingRight=4;overflow=hidden;rotatable=0;points=[[0,0.5],[1,0.5]];portConstraint=eastwest;whiteSpace=wrap;html=1;" parent="riKNYvi7gMaj98JtQU5Q-23" vertex="1">
          <mxGeometry y="26" width="160" height="44" as="geometry" />
        </mxCell>
        <mxCell id="riKNYvi7gMaj98JtQU5Q-25" value="" style="line;strokeWidth=1;fillColor=none;align=left;verticalAlign=middle;spacingTop=-1;spacingLeft=3;spacingRight=3;rotatable=0;labelPosition=right;points=[];portConstraint=eastwest;strokeColor=inherit;" parent="riKNYvi7gMaj98JtQU5Q-23" vertex="1">
          <mxGeometry y="70" width="160" height="8" as="geometry" />
        </mxCell>
        <mxCell id="riKNYvi7gMaj98JtQU5Q-26" value="-connectRequest()&lt;div&gt;-buyItem()&lt;/div&gt;&lt;div&gt;-rechargeAccount()&lt;/div&gt;" style="text;strokeColor=none;fillColor=none;align=left;verticalAlign=top;spacingLeft=4;spacingRight=4;overflow=hidden;rotatable=0;points=[[0,0.5],[1,0.5]];portConstraint=eastwest;whiteSpace=wrap;html=1;" parent="riKNYvi7gMaj98JtQU5Q-23" vertex="1">
          <mxGeometry y="78" width="160" height="52" as="geometry" />
        </mxCell>
        <mxCell id="riKNYvi7gMaj98JtQU5Q-27" value="Maintenance Record" style="swimlane;fontStyle=1;align=center;verticalAlign=top;childLayout=stackLayout;horizontal=1;startSize=26;horizontalStack=0;resizeParent=1;resizeParentMax=0;resizeLast=0;collapsible=1;marginBottom=0;whiteSpace=wrap;html=1;" parent="WIyWlLk6GJQsqaUBKTNV-1" vertex="1">
          <mxGeometry x="650" y="700" width="160" height="78" as="geometry" />
        </mxCell>
        <mxCell id="riKNYvi7gMaj98JtQU5Q-28" value="-maintenanceToDo&lt;div&gt;-maintenanceDone&lt;/div&gt;" style="text;strokeColor=none;fillColor=none;align=left;verticalAlign=top;spacingLeft=4;spacingRight=4;overflow=hidden;rotatable=0;points=[[0,0.5],[1,0.5]];portConstraint=eastwest;whiteSpace=wrap;html=1;" parent="riKNYvi7gMaj98JtQU5Q-27" vertex="1">
          <mxGeometry y="26" width="160" height="44" as="geometry" />
        </mxCell>
        <mxCell id="riKNYvi7gMaj98JtQU5Q-29" value="" style="line;strokeWidth=1;fillColor=none;align=left;verticalAlign=middle;spacingTop=-1;spacingLeft=3;spacingRight=3;rotatable=0;labelPosition=right;points=[];portConstraint=eastwest;strokeColor=inherit;" parent="riKNYvi7gMaj98JtQU5Q-27" vertex="1">
          <mxGeometry y="70" width="160" height="8" as="geometry" />
        </mxCell>
        <mxCell id="riKNYvi7gMaj98JtQU5Q-40" value="" style="endArrow=open;html=1;endSize=12;startArrow=diamondThin;startSize=14;startFill=0;edgeStyle=orthogonalEdgeStyle;align=left;verticalAlign=bottom;rounded=0;" parent="WIyWlLk6GJQsqaUBKTNV-1" source="riKNYvi7gMaj98JtQU5Q-15" target="riKNYvi7gMaj98JtQU5Q-19" edge="1">
          <mxGeometry x="-1" y="3" relative="1" as="geometry">
            <mxPoint x="360" y="410" as="sourcePoint" />
            <mxPoint x="520" y="410" as="targetPoint" />
          </mxGeometry>
        </mxCell>
        <mxCell id="riKNYvi7gMaj98JtQU5Q-51" value="Extends" style="endArrow=block;endSize=16;endFill=0;html=1;rounded=0;" parent="WIyWlLk6GJQsqaUBKTNV-1" source="riKNYvi7gMaj98JtQU5Q-78" target="riKNYvi7gMaj98JtQU5Q-7" edge="1">
          <mxGeometry width="160" relative="1" as="geometry">
            <mxPoint x="120" y="134" as="sourcePoint" />
            <mxPoint x="520" y="410" as="targetPoint" />
          </mxGeometry>
        </mxCell>
        <mxCell id="riKNYvi7gMaj98JtQU5Q-59" value="Maintenance Detected Record" style="swimlane;fontStyle=1;align=center;verticalAlign=top;childLayout=stackLayout;horizontal=1;startSize=26;horizontalStack=0;resizeParent=1;resizeParentMax=0;resizeLast=0;collapsible=1;marginBottom=0;whiteSpace=wrap;html=1;" parent="WIyWlLk6GJQsqaUBKTNV-1" vertex="1">
          <mxGeometry x="635" y="300" width="190" height="142" as="geometry" />
        </mxCell>
        <mxCell id="riKNYvi7gMaj98JtQU5Q-60" value="-maintenanceDetected&lt;div&gt;-status&lt;/div&gt;&lt;div&gt;-type&lt;/div&gt;&lt;div&gt;-description&lt;/div&gt;&lt;div&gt;-notes&lt;/div&gt;" style="text;strokeColor=none;fillColor=none;align=left;verticalAlign=top;spacingLeft=4;spacingRight=4;overflow=hidden;rotatable=0;points=[[0,0.5],[1,0.5]];portConstraint=eastwest;whiteSpace=wrap;html=1;" parent="riKNYvi7gMaj98JtQU5Q-59" vertex="1">
          <mxGeometry y="26" width="190" height="84" as="geometry" />
        </mxCell>
        <mxCell id="riKNYvi7gMaj98JtQU5Q-61" value="" style="line;strokeWidth=1;fillColor=none;align=left;verticalAlign=middle;spacingTop=-1;spacingLeft=3;spacingRight=3;rotatable=0;labelPosition=right;points=[];portConstraint=eastwest;strokeColor=inherit;" parent="riKNYvi7gMaj98JtQU5Q-59" vertex="1">
          <mxGeometry y="110" width="190" height="8" as="geometry" />
        </mxCell>
        <mxCell id="riKNYvi7gMaj98JtQU5Q-62" value="-done()" style="text;strokeColor=none;fillColor=none;align=left;verticalAlign=top;spacingLeft=4;spacingRight=4;overflow=hidden;rotatable=0;points=[[0,0.5],[1,0.5]];portConstraint=eastwest;whiteSpace=wrap;html=1;" parent="riKNYvi7gMaj98JtQU5Q-59" vertex="1">
          <mxGeometry y="118" width="190" height="24" as="geometry" />
        </mxCell>
        <mxCell id="riKNYvi7gMaj98JtQU5Q-67" value="1" style="endArrow=open;html=1;endSize=12;startArrow=diamondThin;startSize=14;startFill=0;edgeStyle=orthogonalEdgeStyle;align=left;verticalAlign=bottom;rounded=0;" parent="WIyWlLk6GJQsqaUBKTNV-1" source="riKNYvi7gMaj98JtQU5Q-16" target="riKNYvi7gMaj98JtQU5Q-12" edge="1">
          <mxGeometry x="-1" y="3" relative="1" as="geometry">
            <mxPoint x="410" y="430" as="sourcePoint" />
            <mxPoint x="570" y="430" as="targetPoint" />
          </mxGeometry>
        </mxCell>
        <mxCell id="riKNYvi7gMaj98JtQU5Q-71" value="Worker" style="swimlane;fontStyle=1;align=center;verticalAlign=top;childLayout=stackLayout;horizontal=1;startSize=26;horizontalStack=0;resizeParent=1;resizeParentMax=0;resizeLast=0;collapsible=1;marginBottom=0;whiteSpace=wrap;html=1;" parent="WIyWlLk6GJQsqaUBKTNV-1" vertex="1">
          <mxGeometry x="650" y="535" width="160" height="100" as="geometry" />
        </mxCell>
        <mxCell id="riKNYvi7gMaj98JtQU5Q-72" value="-assignedTasks" style="text;strokeColor=none;fillColor=none;align=left;verticalAlign=top;spacingLeft=4;spacingRight=4;overflow=hidden;rotatable=0;points=[[0,0.5],[1,0.5]];portConstraint=eastwest;whiteSpace=wrap;html=1;" parent="riKNYvi7gMaj98JtQU5Q-71" vertex="1">
          <mxGeometry y="26" width="160" height="26" as="geometry" />
        </mxCell>
        <mxCell id="riKNYvi7gMaj98JtQU5Q-73" value="" style="line;strokeWidth=1;fillColor=none;align=left;verticalAlign=middle;spacingTop=-1;spacingLeft=3;spacingRight=3;rotatable=0;labelPosition=right;points=[];portConstraint=eastwest;strokeColor=inherit;" parent="riKNYvi7gMaj98JtQU5Q-71" vertex="1">
          <mxGeometry y="52" width="160" height="8" as="geometry" />
        </mxCell>
        <mxCell id="riKNYvi7gMaj98JtQU5Q-74" value="-getAssignedTasks()&lt;div&gt;-getDetails()&lt;/div&gt;" style="text;strokeColor=none;fillColor=none;align=left;verticalAlign=top;spacingLeft=4;spacingRight=4;overflow=hidden;rotatable=0;points=[[0,0.5],[1,0.5]];portConstraint=eastwest;whiteSpace=wrap;html=1;" parent="riKNYvi7gMaj98JtQU5Q-71" vertex="1">
          <mxGeometry y="60" width="160" height="40" as="geometry" />
        </mxCell>
        <mxCell id="riKNYvi7gMaj98JtQU5Q-57" value="Extends" style="endArrow=block;endSize=16;endFill=0;html=1;rounded=0;edgeStyle=orthogonalEdgeStyle;" parent="WIyWlLk6GJQsqaUBKTNV-1" source="riKNYvi7gMaj98JtQU5Q-71" target="riKNYvi7gMaj98JtQU5Q-7" edge="1">
          <mxGeometry width="160" relative="1" as="geometry">
            <mxPoint x="490" y="360" as="sourcePoint" />
            <mxPoint x="650" y="574.5245901639344" as="targetPoint" />
          </mxGeometry>
        </mxCell>
        <mxCell id="riKNYvi7gMaj98JtQU5Q-76" value="Extends" style="endArrow=block;endSize=16;endFill=0;html=1;rounded=0;entryX=0.813;entryY=-0.007;entryDx=0;entryDy=0;entryPerimeter=0;edgeStyle=orthogonalEdgeStyle;" parent="WIyWlLk6GJQsqaUBKTNV-1" source="riKNYvi7gMaj98JtQU5Q-23" target="riKNYvi7gMaj98JtQU5Q-7" edge="1">
          <mxGeometry width="160" relative="1" as="geometry">
            <mxPoint x="100" y="620" as="sourcePoint" />
            <mxPoint x="260" y="620" as="targetPoint" />
          </mxGeometry>
        </mxCell>
        <mxCell id="riKNYvi7gMaj98JtQU5Q-77" value="" style="endArrow=open;html=1;endSize=12;startArrow=diamondThin;startSize=14;startFill=0;edgeStyle=orthogonalEdgeStyle;align=left;verticalAlign=bottom;rounded=0;exitX=0.989;exitY=0.714;exitDx=0;exitDy=0;exitPerimeter=0;" parent="WIyWlLk6GJQsqaUBKTNV-1" source="riKNYvi7gMaj98JtQU5Q-60" target="riKNYvi7gMaj98JtQU5Q-27" edge="1">
          <mxGeometry x="-1" y="3" relative="1" as="geometry">
            <mxPoint x="570" y="380" as="sourcePoint" />
            <mxPoint x="730" y="380" as="targetPoint" />
            <Array as="points">
              <mxPoint x="890" y="386" />
              <mxPoint x="890" y="728" />
            </Array>
          </mxGeometry>
        </mxCell>
        <mxCell id="riKNYvi7gMaj98JtQU5Q-78" value="Admin" style="swimlane;fontStyle=1;align=center;verticalAlign=top;childLayout=stackLayout;horizontal=1;startSize=26;horizontalStack=0;resizeParent=1;resizeParentMax=0;resizeLast=0;collapsible=1;marginBottom=0;whiteSpace=wrap;html=1;" parent="WIyWlLk6GJQsqaUBKTNV-1" vertex="1">
          <mxGeometry x="40" y="168" width="160" height="60" as="geometry" />
        </mxCell>
        <mxCell id="riKNYvi7gMaj98JtQU5Q-80" value="" style="line;strokeWidth=1;fillColor=none;align=left;verticalAlign=middle;spacingTop=-1;spacingLeft=3;spacingRight=3;rotatable=0;labelPosition=right;points=[];portConstraint=eastwest;strokeColor=inherit;" parent="riKNYvi7gMaj98JtQU5Q-78" vertex="1">
          <mxGeometry y="26" width="160" height="8" as="geometry" />
        </mxCell>
        <mxCell id="riKNYvi7gMaj98JtQU5Q-81" value="-viewAnalytics()" style="text;strokeColor=none;fillColor=none;align=left;verticalAlign=top;spacingLeft=4;spacingRight=4;overflow=hidden;rotatable=0;points=[[0,0.5],[1,0.5]];portConstraint=eastwest;whiteSpace=wrap;html=1;" parent="riKNYvi7gMaj98JtQU5Q-78" vertex="1">
          <mxGeometry y="34" width="160" height="26" as="geometry" />
        </mxCell>
        <mxCell id="riKNYvi7gMaj98JtQU5Q-82" value="" style="endArrow=open;endFill=1;endSize=12;html=1;rounded=0;edgeStyle=orthogonalEdgeStyle;" parent="WIyWlLk6GJQsqaUBKTNV-1" source="riKNYvi7gMaj98JtQU5Q-60" target="riKNYvi7gMaj98JtQU5Q-83" edge="1">
          <mxGeometry width="160" relative="1" as="geometry">
            <mxPoint x="860" y="330" as="sourcePoint" />
            <mxPoint x="1020" y="330" as="targetPoint" />
            <Array as="points">
              <mxPoint x="910" y="330" />
              <mxPoint x="910" y="330" />
            </Array>
          </mxGeometry>
        </mxCell>
        <mxCell id="riKNYvi7gMaj98JtQU5Q-87" value="status" style="edgeLabel;html=1;align=center;verticalAlign=middle;resizable=0;points=[];" parent="riKNYvi7gMaj98JtQU5Q-82" vertex="1" connectable="0">
          <mxGeometry x="-0.2996" y="3" relative="1" as="geometry">
            <mxPoint as="offset" />
          </mxGeometry>
        </mxCell>
        <mxCell id="riKNYvi7gMaj98JtQU5Q-83" value="&amp;lt;&amp;lt;enumeration&amp;gt;&amp;gt;Status" style="swimlane;fontStyle=1;align=center;verticalAlign=top;childLayout=stackLayout;horizontal=1;startSize=26;horizontalStack=0;resizeParent=1;resizeParentMax=0;resizeLast=0;collapsible=1;marginBottom=0;whiteSpace=wrap;html=1;" parent="WIyWlLk6GJQsqaUBKTNV-1" vertex="1">
          <mxGeometry x="940" y="285" width="160" height="88" as="geometry" />
        </mxCell>
        <mxCell id="riKNYvi7gMaj98JtQU5Q-84" value="PENDING&lt;div&gt;IN PROGRESS&lt;/div&gt;&lt;div&gt;DONE&lt;/div&gt;" style="text;strokeColor=none;fillColor=none;align=left;verticalAlign=top;spacingLeft=4;spacingRight=4;overflow=hidden;rotatable=0;points=[[0,0.5],[1,0.5]];portConstraint=eastwest;whiteSpace=wrap;html=1;" parent="riKNYvi7gMaj98JtQU5Q-83" vertex="1">
          <mxGeometry y="26" width="160" height="54" as="geometry" />
        </mxCell>
        <mxCell id="riKNYvi7gMaj98JtQU5Q-85" value="" style="line;strokeWidth=1;fillColor=none;align=left;verticalAlign=middle;spacingTop=-1;spacingLeft=3;spacingRight=3;rotatable=0;labelPosition=right;points=[];portConstraint=eastwest;strokeColor=inherit;" parent="riKNYvi7gMaj98JtQU5Q-83" vertex="1">
          <mxGeometry y="80" width="160" height="8" as="geometry" />
        </mxCell>
        <mxCell id="riKNYvi7gMaj98JtQU5Q-186" value="Controller" style="edgeStyle=none;orthogonalLoop=1;jettySize=auto;html=1;rounded=0;fontStyle=7;fontSize=17;strokeColor=#FFFFFF;" parent="WIyWlLk6GJQsqaUBKTNV-1" edge="1">
          <mxGeometry x="-1" y="-163" width="80" relative="1" as="geometry">
            <mxPoint x="1450" y="80" as="sourcePoint" />
            <mxPoint x="1530" y="80" as="targetPoint" />
            <Array as="points" />
            <mxPoint x="-120" y="-53" as="offset" />
          </mxGeometry>
        </mxCell>
        <mxCell id="riKNYvi7gMaj98JtQU5Q-206" value="Builder" style="swimlane;fontStyle=1;align=center;verticalAlign=top;childLayout=stackLayout;horizontal=1;startSize=26;horizontalStack=0;resizeParent=1;resizeParentMax=0;resizeLast=0;collapsible=1;marginBottom=0;whiteSpace=wrap;html=1;" parent="WIyWlLk6GJQsqaUBKTNV-1" vertex="1">
          <mxGeometry x="400" y="360" width="110" height="90" as="geometry" />
        </mxCell>
        <mxCell id="riKNYvi7gMaj98JtQU5Q-208" value="" style="line;strokeWidth=1;fillColor=none;align=left;verticalAlign=middle;spacingTop=-1;spacingLeft=3;spacingRight=3;rotatable=0;labelPosition=right;points=[];portConstraint=eastwest;strokeColor=inherit;" parent="riKNYvi7gMaj98JtQU5Q-206" vertex="1">
          <mxGeometry y="26" width="110" height="8" as="geometry" />
        </mxCell>
        <mxCell id="riKNYvi7gMaj98JtQU5Q-209" value="-build()" style="text;strokeColor=none;fillColor=none;align=left;verticalAlign=top;spacingLeft=4;spacingRight=4;overflow=hidden;rotatable=0;points=[[0,0.5],[1,0.5]];portConstraint=eastwest;whiteSpace=wrap;html=1;" parent="riKNYvi7gMaj98JtQU5Q-206" vertex="1">
          <mxGeometry y="34" width="110" height="56" as="geometry" />
        </mxCell>
        <mxCell id="riKNYvi7gMaj98JtQU5Q-212" value="" style="endArrow=open;html=1;endSize=12;startArrow=diamondThin;startSize=14;startFill=0;edgeStyle=orthogonalEdgeStyle;align=left;verticalAlign=bottom;rounded=0;" parent="WIyWlLk6GJQsqaUBKTNV-1" source="riKNYvi7gMaj98JtQU5Q-11" target="riKNYvi7gMaj98JtQU5Q-206" edge="1">
          <mxGeometry x="-1" y="3" relative="1" as="geometry">
            <mxPoint x="910" y="600" as="sourcePoint" />
            <mxPoint x="1070" y="600" as="targetPoint" />
          </mxGeometry>
        </mxCell>
        <mxCell id="riKNYvi7gMaj98JtQU5Q-213" value="" style="shape=folder;fontStyle=1;spacingTop=10;tabWidth=40;tabHeight=14;tabPosition=left;html=1;whiteSpace=wrap;" parent="WIyWlLk6GJQsqaUBKTNV-1" vertex="1">
          <mxGeometry x="65" y="950" width="1020" height="270" as="geometry" />
        </mxCell>
        <mxCell id="riKNYvi7gMaj98JtQU5Q-216" value="" style="shape=folder;fontStyle=1;spacingTop=10;tabWidth=40;tabHeight=14;tabPosition=left;html=1;whiteSpace=wrap;" parent="WIyWlLk6GJQsqaUBKTNV-1" vertex="1">
          <mxGeometry x="65" y="1254" width="1020" height="180" as="geometry" />
        </mxCell>
        <mxCell id="riKNYvi7gMaj98JtQU5Q-220" value="UserDAO" style="swimlane;fontStyle=1;align=center;verticalAlign=top;childLayout=stackLayout;horizontal=1;startSize=26;horizontalStack=0;resizeParent=1;resizeParentMax=0;resizeLast=0;collapsible=1;marginBottom=0;whiteSpace=wrap;html=1;" parent="WIyWlLk6GJQsqaUBKTNV-1" vertex="1">
          <mxGeometry x="95" y="1010" width="160" height="150" as="geometry" />
        </mxCell>
        <mxCell id="riKNYvi7gMaj98JtQU5Q-221" value="-dbManager" style="text;strokeColor=none;fillColor=none;align=left;verticalAlign=top;spacingLeft=4;spacingRight=4;overflow=hidden;rotatable=0;points=[[0,0.5],[1,0.5]];portConstraint=eastwest;whiteSpace=wrap;html=1;" parent="riKNYvi7gMaj98JtQU5Q-220" vertex="1">
          <mxGeometry y="26" width="160" height="26" as="geometry" />
        </mxCell>
        <mxCell id="riKNYvi7gMaj98JtQU5Q-222" value="" style="line;strokeWidth=1;fillColor=none;align=left;verticalAlign=middle;spacingTop=-1;spacingLeft=3;spacingRight=3;rotatable=0;labelPosition=right;points=[];portConstraint=eastwest;strokeColor=inherit;" parent="riKNYvi7gMaj98JtQU5Q-220" vertex="1">
          <mxGeometry y="52" width="160" height="8" as="geometry" />
        </mxCell>
        <mxCell id="riKNYvi7gMaj98JtQU5Q-223" value="-findById(id)&lt;div&gt;-findAll()&lt;/div&gt;&lt;div&gt;-save(user)&lt;/div&gt;&lt;div&gt;-update(user)&lt;/div&gt;&lt;div&gt;-delete(Id)&lt;/div&gt;" style="text;strokeColor=none;fillColor=none;align=left;verticalAlign=top;spacingLeft=4;spacingRight=4;overflow=hidden;rotatable=0;points=[[0,0.5],[1,0.5]];portConstraint=eastwest;whiteSpace=wrap;html=1;" parent="riKNYvi7gMaj98JtQU5Q-220" vertex="1">
          <mxGeometry y="60" width="160" height="90" as="geometry" />
        </mxCell>
        <mxCell id="riKNYvi7gMaj98JtQU5Q-224" value="VendingMachineDAO" style="swimlane;fontStyle=1;align=center;verticalAlign=top;childLayout=stackLayout;horizontal=1;startSize=26;horizontalStack=0;resizeParent=1;resizeParentMax=0;resizeLast=0;collapsible=1;marginBottom=0;whiteSpace=wrap;html=1;" parent="WIyWlLk6GJQsqaUBKTNV-1" vertex="1">
          <mxGeometry x="270" y="1010" width="160" height="150" as="geometry" />
        </mxCell>
        <mxCell id="riKNYvi7gMaj98JtQU5Q-225" value="-dbManager" style="text;strokeColor=none;fillColor=none;align=left;verticalAlign=top;spacingLeft=4;spacingRight=4;overflow=hidden;rotatable=0;points=[[0,0.5],[1,0.5]];portConstraint=eastwest;whiteSpace=wrap;html=1;" parent="riKNYvi7gMaj98JtQU5Q-224" vertex="1">
          <mxGeometry y="26" width="160" height="26" as="geometry" />
        </mxCell>
        <mxCell id="riKNYvi7gMaj98JtQU5Q-226" value="" style="line;strokeWidth=1;fillColor=none;align=left;verticalAlign=middle;spacingTop=-1;spacingLeft=3;spacingRight=3;rotatable=0;labelPosition=right;points=[];portConstraint=eastwest;strokeColor=inherit;" parent="riKNYvi7gMaj98JtQU5Q-224" vertex="1">
          <mxGeometry y="52" width="160" height="8" as="geometry" />
        </mxCell>
        <mxCell id="riKNYvi7gMaj98JtQU5Q-227" value="-findById(id)&lt;div&gt;-findAll()&lt;/div&gt;&lt;div&gt;-save(machine)&lt;/div&gt;&lt;div&gt;-updateStatus(id, status)&lt;/div&gt;&lt;div&gt;-delete(id)&lt;/div&gt;" style="text;strokeColor=none;fillColor=none;align=left;verticalAlign=top;spacingLeft=4;spacingRight=4;overflow=hidden;rotatable=0;points=[[0,0.5],[1,0.5]];portConstraint=eastwest;whiteSpace=wrap;html=1;" parent="riKNYvi7gMaj98JtQU5Q-224" vertex="1">
          <mxGeometry y="60" width="160" height="90" as="geometry" />
        </mxCell>
        <mxCell id="riKNYvi7gMaj98JtQU5Q-228" value="MaintenanceDAO" style="swimlane;fontStyle=1;align=center;verticalAlign=top;childLayout=stackLayout;horizontal=1;startSize=26;horizontalStack=0;resizeParent=1;resizeParentMax=0;resizeLast=0;collapsible=1;marginBottom=0;whiteSpace=wrap;html=1;" parent="WIyWlLk6GJQsqaUBKTNV-1" vertex="1">
          <mxGeometry x="448.5" y="1010" width="190" height="140" as="geometry" />
        </mxCell>
        <mxCell id="riKNYvi7gMaj98JtQU5Q-229" value="-dbManager" style="text;strokeColor=none;fillColor=none;align=left;verticalAlign=top;spacingLeft=4;spacingRight=4;overflow=hidden;rotatable=0;points=[[0,0.5],[1,0.5]];portConstraint=eastwest;whiteSpace=wrap;html=1;" parent="riKNYvi7gMaj98JtQU5Q-228" vertex="1">
          <mxGeometry y="26" width="190" height="26" as="geometry" />
        </mxCell>
        <mxCell id="riKNYvi7gMaj98JtQU5Q-230" value="" style="line;strokeWidth=1;fillColor=none;align=left;verticalAlign=middle;spacingTop=-1;spacingLeft=3;spacingRight=3;rotatable=0;labelPosition=right;points=[];portConstraint=eastwest;strokeColor=inherit;" parent="riKNYvi7gMaj98JtQU5Q-228" vertex="1">
          <mxGeometry y="52" width="190" height="8" as="geometry" />
        </mxCell>
        <mxCell id="riKNYvi7gMaj98JtQU5Q-231" value="findTaskByWorker(workerId)&lt;div&gt;-save(task)&lt;/div&gt;&lt;div&gt;-updateStatus(taskId, status)&lt;/div&gt;" style="text;strokeColor=none;fillColor=none;align=left;verticalAlign=top;spacingLeft=4;spacingRight=4;overflow=hidden;rotatable=0;points=[[0,0.5],[1,0.5]];portConstraint=eastwest;whiteSpace=wrap;html=1;" parent="riKNYvi7gMaj98JtQU5Q-228" vertex="1">
          <mxGeometry y="60" width="190" height="80" as="geometry" />
        </mxCell>
        <mxCell id="riKNYvi7gMaj98JtQU5Q-232" value="TransactionDAO" style="swimlane;fontStyle=1;align=center;verticalAlign=top;childLayout=stackLayout;horizontal=1;startSize=26;horizontalStack=0;resizeParent=1;resizeParentMax=0;resizeLast=0;collapsible=1;marginBottom=0;whiteSpace=wrap;html=1;" parent="WIyWlLk6GJQsqaUBKTNV-1" vertex="1">
          <mxGeometry x="655" y="1010" width="160" height="140" as="geometry" />
        </mxCell>
        <mxCell id="riKNYvi7gMaj98JtQU5Q-233" value="-dbManager" style="text;strokeColor=none;fillColor=none;align=left;verticalAlign=top;spacingLeft=4;spacingRight=4;overflow=hidden;rotatable=0;points=[[0,0.5],[1,0.5]];portConstraint=eastwest;whiteSpace=wrap;html=1;" parent="riKNYvi7gMaj98JtQU5Q-232" vertex="1">
          <mxGeometry y="26" width="160" height="26" as="geometry" />
        </mxCell>
        <mxCell id="riKNYvi7gMaj98JtQU5Q-234" value="" style="line;strokeWidth=1;fillColor=none;align=left;verticalAlign=middle;spacingTop=-1;spacingLeft=3;spacingRight=3;rotatable=0;labelPosition=right;points=[];portConstraint=eastwest;strokeColor=inherit;" parent="riKNYvi7gMaj98JtQU5Q-232" vertex="1">
          <mxGeometry y="52" width="160" height="8" as="geometry" />
        </mxCell>
        <mxCell id="riKNYvi7gMaj98JtQU5Q-235" value="-findByUser(userId)&lt;div&gt;-save(transaction)&lt;/div&gt;&lt;div&gt;-findLatestBalance(userId)&lt;/div&gt;" style="text;strokeColor=none;fillColor=none;align=left;verticalAlign=top;spacingLeft=4;spacingRight=4;overflow=hidden;rotatable=0;points=[[0,0.5],[1,0.5]];portConstraint=eastwest;whiteSpace=wrap;html=1;" parent="riKNYvi7gMaj98JtQU5Q-232" vertex="1">
          <mxGeometry y="60" width="160" height="80" as="geometry" />
        </mxCell>
        <mxCell id="riKNYvi7gMaj98JtQU5Q-236" value="ItemDAO" style="swimlane;fontStyle=1;align=center;verticalAlign=top;childLayout=stackLayout;horizontal=1;startSize=26;horizontalStack=0;resizeParent=1;resizeParentMax=0;resizeLast=0;collapsible=1;marginBottom=0;whiteSpace=wrap;html=1;" parent="WIyWlLk6GJQsqaUBKTNV-1" vertex="1">
          <mxGeometry x="835" y="1010" width="160" height="150" as="geometry" />
        </mxCell>
        <mxCell id="riKNYvi7gMaj98JtQU5Q-237" value="-dbManager" style="text;strokeColor=none;fillColor=none;align=left;verticalAlign=top;spacingLeft=4;spacingRight=4;overflow=hidden;rotatable=0;points=[[0,0.5],[1,0.5]];portConstraint=eastwest;whiteSpace=wrap;html=1;" parent="riKNYvi7gMaj98JtQU5Q-236" vertex="1">
          <mxGeometry y="26" width="160" height="26" as="geometry" />
        </mxCell>
        <mxCell id="riKNYvi7gMaj98JtQU5Q-238" value="" style="line;strokeWidth=1;fillColor=none;align=left;verticalAlign=middle;spacingTop=-1;spacingLeft=3;spacingRight=3;rotatable=0;labelPosition=right;points=[];portConstraint=eastwest;strokeColor=inherit;" parent="riKNYvi7gMaj98JtQU5Q-236" vertex="1">
          <mxGeometry y="52" width="160" height="8" as="geometry" />
        </mxCell>
        <mxCell id="riKNYvi7gMaj98JtQU5Q-239" value="-findById(id)&lt;div&gt;-findAll()&lt;/div&gt;&lt;div&gt;-save(item)&lt;/div&gt;&lt;div&gt;-update(item)&lt;/div&gt;&lt;div&gt;-delete(id)&lt;/div&gt;" style="text;strokeColor=none;fillColor=none;align=left;verticalAlign=top;spacingLeft=4;spacingRight=4;overflow=hidden;rotatable=0;points=[[0,0.5],[1,0.5]];portConstraint=eastwest;whiteSpace=wrap;html=1;" parent="riKNYvi7gMaj98JtQU5Q-236" vertex="1">
          <mxGeometry y="60" width="160" height="90" as="geometry" />
        </mxCell>
        <mxCell id="riKNYvi7gMaj98JtQU5Q-240" value="&lt;b&gt;&lt;i&gt;&lt;u&gt;&lt;font style=&quot;font-size: 19px;&quot;&gt;DAO&lt;/font&gt;&lt;/u&gt;&lt;/i&gt;&lt;/b&gt;" style="text;html=1;align=center;verticalAlign=middle;resizable=0;points=[];autosize=1;strokeColor=none;fillColor=none;" parent="WIyWlLk6GJQsqaUBKTNV-1" vertex="1">
          <mxGeometry x="105" y="970" width="70" height="40" as="geometry" />
        </mxCell>
        <mxCell id="riKNYvi7gMaj98JtQU5Q-242" value="&lt;b&gt;&lt;i&gt;&lt;u&gt;&lt;font style=&quot;font-size: 20px;&quot;&gt;DB&lt;/font&gt;&lt;/u&gt;&lt;/i&gt;&lt;/b&gt;" style="text;html=1;align=center;verticalAlign=middle;resizable=0;points=[];autosize=1;strokeColor=none;fillColor=none;" parent="WIyWlLk6GJQsqaUBKTNV-1" vertex="1">
          <mxGeometry x="125" y="1366" width="50" height="40" as="geometry" />
        </mxCell>
        <mxCell id="riKNYvi7gMaj98JtQU5Q-243" value="DBManager" style="swimlane;fontStyle=1;align=center;verticalAlign=top;childLayout=stackLayout;horizontal=1;startSize=26;horizontalStack=0;resizeParent=1;resizeParentMax=0;resizeLast=0;collapsible=1;marginBottom=0;whiteSpace=wrap;html=1;" parent="WIyWlLk6GJQsqaUBKTNV-1" vertex="1">
          <mxGeometry x="463.5" y="1320" width="160" height="100" as="geometry" />
        </mxCell>
        <mxCell id="riKNYvi7gMaj98JtQU5Q-244" value="&lt;div&gt;&lt;span style=&quot;background-color: transparent; color: light-dark(rgb(0, 0, 0), rgb(255, 255, 255));&quot;&gt;-connection&lt;/span&gt;&lt;/div&gt;" style="text;strokeColor=none;fillColor=none;align=left;verticalAlign=top;spacingLeft=4;spacingRight=4;overflow=hidden;rotatable=0;points=[[0,0.5],[1,0.5]];portConstraint=eastwest;whiteSpace=wrap;html=1;" parent="riKNYvi7gMaj98JtQU5Q-243" vertex="1">
          <mxGeometry y="26" width="160" height="26" as="geometry" />
        </mxCell>
        <mxCell id="riKNYvi7gMaj98JtQU5Q-245" value="" style="line;strokeWidth=1;fillColor=none;align=left;verticalAlign=middle;spacingTop=-1;spacingLeft=3;spacingRight=3;rotatable=0;labelPosition=right;points=[];portConstraint=eastwest;strokeColor=inherit;" parent="riKNYvi7gMaj98JtQU5Q-243" vertex="1">
          <mxGeometry y="52" width="160" height="8" as="geometry" />
        </mxCell>
        <mxCell id="riKNYvi7gMaj98JtQU5Q-246" value="-getInstance()&lt;div&gt;-getConnection()&lt;/div&gt;" style="text;strokeColor=none;fillColor=none;align=left;verticalAlign=top;spacingLeft=4;spacingRight=4;overflow=hidden;rotatable=0;points=[[0,0.5],[1,0.5]];portConstraint=eastwest;whiteSpace=wrap;html=1;" parent="riKNYvi7gMaj98JtQU5Q-243" vertex="1">
          <mxGeometry y="60" width="160" height="40" as="geometry" />
        </mxCell>
        <mxCell id="riKNYvi7gMaj98JtQU5Q-247" value="" style="endArrow=open;endFill=1;endSize=12;html=1;rounded=0;entryX=0;entryY=0.5;entryDx=0;entryDy=0;edgeStyle=orthogonalEdgeStyle;" parent="WIyWlLk6GJQsqaUBKTNV-1" source="riKNYvi7gMaj98JtQU5Q-220" target="riKNYvi7gMaj98JtQU5Q-244" edge="1">
          <mxGeometry width="160" relative="1" as="geometry">
            <mxPoint x="625" y="1290" as="sourcePoint" />
            <mxPoint x="785" y="1290" as="targetPoint" />
          </mxGeometry>
        </mxCell>
        <mxCell id="riKNYvi7gMaj98JtQU5Q-248" value="" style="endArrow=open;endFill=1;endSize=12;html=1;rounded=0;entryX=0;entryY=0.25;entryDx=0;entryDy=0;edgeStyle=orthogonalEdgeStyle;" parent="WIyWlLk6GJQsqaUBKTNV-1" source="riKNYvi7gMaj98JtQU5Q-224" target="riKNYvi7gMaj98JtQU5Q-243" edge="1">
          <mxGeometry width="160" relative="1" as="geometry">
            <mxPoint x="625" y="1290" as="sourcePoint" />
            <mxPoint x="785" y="1290" as="targetPoint" />
            <Array as="points">
              <mxPoint x="350" y="1342" />
            </Array>
          </mxGeometry>
        </mxCell>
        <mxCell id="riKNYvi7gMaj98JtQU5Q-249" value="" style="endArrow=open;endFill=1;endSize=12;html=1;rounded=0;edgeStyle=orthogonalEdgeStyle;" parent="WIyWlLk6GJQsqaUBKTNV-1" source="riKNYvi7gMaj98JtQU5Q-228" target="riKNYvi7gMaj98JtQU5Q-243" edge="1">
          <mxGeometry width="160" relative="1" as="geometry">
            <mxPoint x="625" y="1290" as="sourcePoint" />
            <mxPoint x="785" y="1290" as="targetPoint" />
          </mxGeometry>
        </mxCell>
        <mxCell id="riKNYvi7gMaj98JtQU5Q-250" value="" style="endArrow=open;endFill=1;endSize=12;html=1;rounded=0;entryX=1;entryY=0.25;entryDx=0;entryDy=0;edgeStyle=orthogonalEdgeStyle;" parent="WIyWlLk6GJQsqaUBKTNV-1" source="riKNYvi7gMaj98JtQU5Q-232" target="riKNYvi7gMaj98JtQU5Q-243" edge="1">
          <mxGeometry width="160" relative="1" as="geometry">
            <mxPoint x="625" y="1290" as="sourcePoint" />
            <mxPoint x="785" y="1290" as="targetPoint" />
            <Array as="points">
              <mxPoint x="735" y="1342" />
            </Array>
          </mxGeometry>
        </mxCell>
        <mxCell id="riKNYvi7gMaj98JtQU5Q-251" value="" style="endArrow=open;endFill=1;endSize=12;html=1;rounded=0;entryX=1;entryY=0.5;entryDx=0;entryDy=0;edgeStyle=orthogonalEdgeStyle;" parent="WIyWlLk6GJQsqaUBKTNV-1" source="riKNYvi7gMaj98JtQU5Q-236" target="riKNYvi7gMaj98JtQU5Q-244" edge="1">
          <mxGeometry width="160" relative="1" as="geometry">
            <mxPoint x="625" y="1290" as="sourcePoint" />
            <mxPoint x="785" y="1290" as="targetPoint" />
          </mxGeometry>
        </mxCell>
        <mxCell id="UQJnZ-6eAhfQO-VNr-vx-3" value="" style="shape=folder;fontStyle=1;tabWidth=80;tabHeight=30;tabPosition=left;html=1;boundedLbl=1;whiteSpace=wrap;" parent="WIyWlLk6GJQsqaUBKTNV-1" vertex="1">
          <mxGeometry x="1180" y="80" width="1480" height="1480" as="geometry" />
        </mxCell>
        <mxCell id="UQJnZ-6eAhfQO-VNr-vx-4" value="" style="shape=folder;fontStyle=1;spacingTop=10;tabWidth=40;tabHeight=14;tabPosition=left;html=1;whiteSpace=wrap;" parent="WIyWlLk6GJQsqaUBKTNV-1" vertex="1">
          <mxGeometry x="1210" y="150" width="1400" height="940" as="geometry" />
        </mxCell>
        <mxCell id="UQJnZ-6eAhfQO-VNr-vx-5" value="ApplicationManager" style="swimlane;fontStyle=1;align=center;verticalAlign=top;childLayout=stackLayout;horizontal=1;startSize=26;horizontalStack=0;resizeParent=1;resizeParentMax=0;resizeLast=0;collapsible=1;marginBottom=0;whiteSpace=wrap;html=1;" parent="WIyWlLk6GJQsqaUBKTNV-1" vertex="1">
          <mxGeometry x="1717.5" y="740" width="400" height="310" as="geometry" />
        </mxCell>
        <mxCell id="UQJnZ-6eAhfQO-VNr-vx-6" value="-authService&lt;div&gt;-vendingMachineService&lt;/div&gt;&lt;div&gt;-maintenanceService&lt;/div&gt;&lt;div&gt;-transactionService&lt;/div&gt;&lt;div&gt;&lt;br&gt;&lt;/div&gt;&lt;div&gt;-userDAO&lt;/div&gt;&lt;div&gt;-itemDAO&lt;/div&gt;&lt;div&gt;-vendingMachineDAO&lt;/div&gt;&lt;div&gt;-transactionDAO&lt;/div&gt;&lt;div&gt;-maintenanceDAO&lt;/div&gt;&lt;div&gt;&lt;br&gt;&lt;/div&gt;&lt;div&gt;-customerController&lt;/div&gt;&lt;div&gt;-workerController&lt;/div&gt;&lt;div&gt;-adminController&lt;/div&gt;" style="text;strokeColor=none;fillColor=none;align=left;verticalAlign=top;spacingLeft=4;spacingRight=4;overflow=hidden;rotatable=0;points=[[0,0.5],[1,0.5]];portConstraint=eastwest;whiteSpace=wrap;html=1;" parent="UQJnZ-6eAhfQO-VNr-vx-5" vertex="1">
          <mxGeometry y="26" width="400" height="214" as="geometry" />
        </mxCell>
        <mxCell id="UQJnZ-6eAhfQO-VNr-vx-7" value="" style="line;strokeWidth=1;fillColor=none;align=left;verticalAlign=middle;spacingTop=-1;spacingLeft=3;spacingRight=3;rotatable=0;labelPosition=right;points=[];portConstraint=eastwest;strokeColor=inherit;" parent="UQJnZ-6eAhfQO-VNr-vx-5" vertex="1">
          <mxGeometry y="240" width="400" height="8" as="geometry" />
        </mxCell>
        <mxCell id="UQJnZ-6eAhfQO-VNr-vx-8" value="-getCustomerController()&lt;div&gt;-getWorkerController()&lt;/div&gt;&lt;div&gt;-getAdminController()&lt;/div&gt;" style="text;strokeColor=none;fillColor=none;align=left;verticalAlign=top;spacingLeft=4;spacingRight=4;overflow=hidden;rotatable=0;points=[[0,0.5],[1,0.5]];portConstraint=eastwest;whiteSpace=wrap;html=1;" parent="UQJnZ-6eAhfQO-VNr-vx-5" vertex="1">
          <mxGeometry y="248" width="400" height="62" as="geometry" />
        </mxCell>
        <mxCell id="UQJnZ-6eAhfQO-VNr-vx-9" value="CustomerController" style="swimlane;fontStyle=1;align=center;verticalAlign=top;childLayout=stackLayout;horizontal=1;startSize=26;horizontalStack=0;resizeParent=1;resizeParentMax=0;resizeLast=0;collapsible=1;marginBottom=0;whiteSpace=wrap;html=1;" parent="WIyWlLk6GJQsqaUBKTNV-1" vertex="1">
          <mxGeometry x="1782.5" y="390" width="270" height="200" as="geometry" />
        </mxCell>
        <mxCell id="UQJnZ-6eAhfQO-VNr-vx-10" value="&lt;div&gt;-vendingMachineService&lt;/div&gt;&lt;div&gt;-transactionService&lt;/div&gt;&lt;div&gt;&lt;br&gt;&lt;/div&gt;&lt;div&gt;-itemDAO&lt;/div&gt;" style="text;strokeColor=none;fillColor=none;align=left;verticalAlign=top;spacingLeft=4;spacingRight=4;overflow=hidden;rotatable=0;points=[[0,0.5],[1,0.5]];portConstraint=eastwest;whiteSpace=wrap;html=1;" parent="UQJnZ-6eAhfQO-VNr-vx-9" vertex="1">
          <mxGeometry y="26" width="270" height="104" as="geometry" />
        </mxCell>
        <mxCell id="UQJnZ-6eAhfQO-VNr-vx-11" value="" style="line;strokeWidth=1;fillColor=none;align=left;verticalAlign=middle;spacingTop=-1;spacingLeft=3;spacingRight=3;rotatable=0;labelPosition=right;points=[];portConstraint=eastwest;strokeColor=inherit;" parent="UQJnZ-6eAhfQO-VNr-vx-9" vertex="1">
          <mxGeometry y="130" width="270" height="8" as="geometry" />
        </mxCell>
        <mxCell id="UQJnZ-6eAhfQO-VNr-vx-12" value="-connectToMachine(userId, machineId)&lt;div&gt;-buyItem(userId, itemId, machineId)&lt;/div&gt;&lt;div&gt;-rechargeAccount(userId, amount)&lt;/div&gt;" style="text;strokeColor=none;fillColor=none;align=left;verticalAlign=top;spacingLeft=4;spacingRight=4;overflow=hidden;rotatable=0;points=[[0,0.5],[1,0.5]];portConstraint=eastwest;whiteSpace=wrap;html=1;" parent="UQJnZ-6eAhfQO-VNr-vx-9" vertex="1">
          <mxGeometry y="138" width="270" height="62" as="geometry" />
        </mxCell>
        <mxCell id="UQJnZ-6eAhfQO-VNr-vx-13" value="WorkerController" style="swimlane;fontStyle=1;align=center;verticalAlign=top;childLayout=stackLayout;horizontal=1;startSize=26;horizontalStack=0;resizeParent=1;resizeParentMax=0;resizeLast=0;collapsible=1;marginBottom=0;whiteSpace=wrap;html=1;" parent="WIyWlLk6GJQsqaUBKTNV-1" vertex="1">
          <mxGeometry x="2250" y="490" width="230" height="160" as="geometry" />
        </mxCell>
        <mxCell id="UQJnZ-6eAhfQO-VNr-vx-14" value="-maintenanceService&lt;div&gt;&lt;br&gt;&lt;/div&gt;&lt;div&gt;-maintenanceDAO&lt;/div&gt;&lt;div&gt;-vendingMachineDAO&lt;/div&gt;" style="text;strokeColor=none;fillColor=none;align=left;verticalAlign=top;spacingLeft=4;spacingRight=4;overflow=hidden;rotatable=0;points=[[0,0.5],[1,0.5]];portConstraint=eastwest;whiteSpace=wrap;html=1;" parent="UQJnZ-6eAhfQO-VNr-vx-13" vertex="1">
          <mxGeometry y="26" width="230" height="74" as="geometry" />
        </mxCell>
        <mxCell id="UQJnZ-6eAhfQO-VNr-vx-15" value="" style="line;strokeWidth=1;fillColor=none;align=left;verticalAlign=middle;spacingTop=-1;spacingLeft=3;spacingRight=3;rotatable=0;labelPosition=right;points=[];portConstraint=eastwest;strokeColor=inherit;" parent="UQJnZ-6eAhfQO-VNr-vx-13" vertex="1">
          <mxGeometry y="100" width="230" height="8" as="geometry" />
        </mxCell>
        <mxCell id="UQJnZ-6eAhfQO-VNr-vx-16" value="-getAssignedTasks(workerId)&lt;div&gt;-reportMachineMaintenance(taskId)&lt;/div&gt;" style="text;strokeColor=none;fillColor=none;align=left;verticalAlign=top;spacingLeft=4;spacingRight=4;overflow=hidden;rotatable=0;points=[[0,0.5],[1,0.5]];portConstraint=eastwest;whiteSpace=wrap;html=1;" parent="UQJnZ-6eAhfQO-VNr-vx-13" vertex="1">
          <mxGeometry y="108" width="230" height="52" as="geometry" />
        </mxCell>
        <mxCell id="UQJnZ-6eAhfQO-VNr-vx-17" value="AdminController" style="swimlane;fontStyle=1;align=center;verticalAlign=top;childLayout=stackLayout;horizontal=1;startSize=26;horizontalStack=0;resizeParent=1;resizeParentMax=0;resizeLast=0;collapsible=1;marginBottom=0;whiteSpace=wrap;html=1;" parent="WIyWlLk6GJQsqaUBKTNV-1" vertex="1">
          <mxGeometry x="1291" y="490" width="210" height="190" as="geometry" />
        </mxCell>
        <mxCell id="UQJnZ-6eAhfQO-VNr-vx-18" value="&lt;div&gt;-vendingMachineDAO&lt;/div&gt;&lt;div&gt;-transactionDAO&lt;/div&gt;&lt;div&gt;-maintenanceDAO&lt;/div&gt;" style="text;strokeColor=none;fillColor=none;align=left;verticalAlign=top;spacingLeft=4;spacingRight=4;overflow=hidden;rotatable=0;points=[[0,0.5],[1,0.5]];portConstraint=eastwest;whiteSpace=wrap;html=1;" parent="UQJnZ-6eAhfQO-VNr-vx-17" vertex="1">
          <mxGeometry y="26" width="210" height="74" as="geometry" />
        </mxCell>
        <mxCell id="UQJnZ-6eAhfQO-VNr-vx-19" value="" style="line;strokeWidth=1;fillColor=none;align=left;verticalAlign=middle;spacingTop=-1;spacingLeft=3;spacingRight=3;rotatable=0;labelPosition=right;points=[];portConstraint=eastwest;strokeColor=inherit;" parent="UQJnZ-6eAhfQO-VNr-vx-17" vertex="1">
          <mxGeometry y="100" width="210" height="8" as="geometry" />
        </mxCell>
        <mxCell id="UQJnZ-6eAhfQO-VNr-vx-20" value="-viewAnalytics()&lt;div&gt;-manageUsers()&lt;/div&gt;&lt;div&gt;-manageInventory()&lt;/div&gt;&lt;div&gt;-manageMachine()&lt;/div&gt;&lt;div&gt;-manageItem()&lt;/div&gt;" style="text;strokeColor=none;fillColor=none;align=left;verticalAlign=top;spacingLeft=4;spacingRight=4;overflow=hidden;rotatable=0;points=[[0,0.5],[1,0.5]];portConstraint=eastwest;whiteSpace=wrap;html=1;" parent="UQJnZ-6eAhfQO-VNr-vx-17" vertex="1">
          <mxGeometry y="108" width="210" height="82" as="geometry" />
        </mxCell>
        <mxCell id="UQJnZ-6eAhfQO-VNr-vx-21" value="UserController" style="swimlane;fontStyle=1;align=center;verticalAlign=top;childLayout=stackLayout;horizontal=1;startSize=26;horizontalStack=0;resizeParent=1;resizeParentMax=0;resizeLast=0;collapsible=1;marginBottom=0;whiteSpace=wrap;html=1;" parent="WIyWlLk6GJQsqaUBKTNV-1" vertex="1">
          <mxGeometry x="1815" y="198" width="205" height="140" as="geometry" />
        </mxCell>
        <mxCell id="UQJnZ-6eAhfQO-VNr-vx-22" value="-authService&lt;div&gt;&lt;br&gt;&lt;/div&gt;&lt;div&gt;-userDAO&lt;/div&gt;" style="text;strokeColor=none;fillColor=none;align=left;verticalAlign=top;spacingLeft=4;spacingRight=4;overflow=hidden;rotatable=0;points=[[0,0.5],[1,0.5]];portConstraint=eastwest;whiteSpace=wrap;html=1;" parent="UQJnZ-6eAhfQO-VNr-vx-21" vertex="1">
          <mxGeometry y="26" width="205" height="54" as="geometry" />
        </mxCell>
        <mxCell id="UQJnZ-6eAhfQO-VNr-vx-23" value="" style="line;strokeWidth=1;fillColor=none;align=left;verticalAlign=middle;spacingTop=-1;spacingLeft=3;spacingRight=3;rotatable=0;labelPosition=right;points=[];portConstraint=eastwest;strokeColor=inherit;" parent="UQJnZ-6eAhfQO-VNr-vx-21" vertex="1">
          <mxGeometry y="80" width="205" height="8" as="geometry" />
        </mxCell>
        <mxCell id="UQJnZ-6eAhfQO-VNr-vx-24" value="-login()&lt;div&gt;-signup()&lt;/div&gt;" style="text;strokeColor=none;fillColor=none;align=left;verticalAlign=top;spacingLeft=4;spacingRight=4;overflow=hidden;rotatable=0;points=[[0,0.5],[1,0.5]];portConstraint=eastwest;whiteSpace=wrap;html=1;" parent="UQJnZ-6eAhfQO-VNr-vx-21" vertex="1">
          <mxGeometry y="88" width="205" height="52" as="geometry" />
        </mxCell>
        <mxCell id="UQJnZ-6eAhfQO-VNr-vx-25" value="Extends" style="endArrow=block;endSize=16;endFill=0;html=1;rounded=0;edgeStyle=orthogonalEdgeStyle;" parent="WIyWlLk6GJQsqaUBKTNV-1" source="UQJnZ-6eAhfQO-VNr-vx-17" target="UQJnZ-6eAhfQO-VNr-vx-21" edge="1">
          <mxGeometry width="160" relative="1" as="geometry">
            <mxPoint x="1970" y="510" as="sourcePoint" />
            <mxPoint x="2130" y="510" as="targetPoint" />
            <Array as="points">
              <mxPoint x="1390" y="225" />
            </Array>
          </mxGeometry>
        </mxCell>
        <mxCell id="UQJnZ-6eAhfQO-VNr-vx-26" value="Extends" style="endArrow=block;endSize=16;endFill=0;html=1;rounded=0;edgeStyle=orthogonalEdgeStyle;" parent="WIyWlLk6GJQsqaUBKTNV-1" source="UQJnZ-6eAhfQO-VNr-vx-9" target="UQJnZ-6eAhfQO-VNr-vx-21" edge="1">
          <mxGeometry width="160" relative="1" as="geometry">
            <mxPoint x="1970" y="510" as="sourcePoint" />
            <mxPoint x="2130" y="510" as="targetPoint" />
          </mxGeometry>
        </mxCell>
        <mxCell id="UQJnZ-6eAhfQO-VNr-vx-27" value="Extends" style="endArrow=block;endSize=16;endFill=0;html=1;rounded=0;edgeStyle=orthogonalEdgeStyle;" parent="WIyWlLk6GJQsqaUBKTNV-1" source="UQJnZ-6eAhfQO-VNr-vx-13" target="UQJnZ-6eAhfQO-VNr-vx-21" edge="1">
          <mxGeometry width="160" relative="1" as="geometry">
            <mxPoint x="1970" y="510" as="sourcePoint" />
            <mxPoint x="2130" y="510" as="targetPoint" />
            <Array as="points">
              <mxPoint x="2360" y="225" />
            </Array>
          </mxGeometry>
        </mxCell>
        <mxCell id="UQJnZ-6eAhfQO-VNr-vx-28" value="" style="endArrow=open;html=1;endSize=12;startArrow=diamondThin;startSize=14;startFill=0;edgeStyle=orthogonalEdgeStyle;rounded=0;" parent="WIyWlLk6GJQsqaUBKTNV-1" source="UQJnZ-6eAhfQO-VNr-vx-5" target="UQJnZ-6eAhfQO-VNr-vx-17" edge="1">
          <mxGeometry relative="1" as="geometry">
            <mxPoint x="1970" y="700" as="sourcePoint" />
            <mxPoint x="2130" y="700" as="targetPoint" />
            <Array as="points">
              <mxPoint x="1396" y="890" />
            </Array>
          </mxGeometry>
        </mxCell>
        <mxCell id="UQJnZ-6eAhfQO-VNr-vx-29" value="" style="endArrow=open;html=1;endSize=12;startArrow=diamondThin;startSize=14;startFill=0;edgeStyle=orthogonalEdgeStyle;rounded=0;" parent="WIyWlLk6GJQsqaUBKTNV-1" source="UQJnZ-6eAhfQO-VNr-vx-5" target="UQJnZ-6eAhfQO-VNr-vx-9" edge="1">
          <mxGeometry relative="1" as="geometry">
            <mxPoint x="1970" y="700" as="sourcePoint" />
            <mxPoint x="2130" y="700" as="targetPoint" />
          </mxGeometry>
        </mxCell>
        <mxCell id="UQJnZ-6eAhfQO-VNr-vx-30" value="" style="endArrow=open;html=1;endSize=12;startArrow=diamondThin;startSize=14;startFill=0;edgeStyle=orthogonalEdgeStyle;align=left;verticalAlign=bottom;rounded=0;" parent="WIyWlLk6GJQsqaUBKTNV-1" source="UQJnZ-6eAhfQO-VNr-vx-5" target="UQJnZ-6eAhfQO-VNr-vx-16" edge="1">
          <mxGeometry x="-1" y="3" relative="1" as="geometry">
            <mxPoint x="1970" y="700" as="sourcePoint" />
            <mxPoint x="2130" y="700" as="targetPoint" />
            <Array as="points">
              <mxPoint x="2350" y="895" />
            </Array>
          </mxGeometry>
        </mxCell>
        <mxCell id="UQJnZ-6eAhfQO-VNr-vx-31" value="" style="shape=folder;fontStyle=1;spacingTop=10;tabWidth=40;tabHeight=14;tabPosition=left;html=1;whiteSpace=wrap;" parent="WIyWlLk6GJQsqaUBKTNV-1" vertex="1">
          <mxGeometry x="1210" y="1124" width="1290" height="206" as="geometry" />
        </mxCell>
        <mxCell id="UQJnZ-6eAhfQO-VNr-vx-32" value="VendingMachineService" style="swimlane;fontStyle=1;align=center;verticalAlign=top;childLayout=stackLayout;horizontal=1;startSize=26;horizontalStack=0;resizeParent=1;resizeParentMax=0;resizeLast=0;collapsible=1;marginBottom=0;whiteSpace=wrap;html=1;" parent="WIyWlLk6GJQsqaUBKTNV-1" vertex="1">
          <mxGeometry x="1790" y="1200" width="240" height="114" as="geometry" />
        </mxCell>
        <mxCell id="UQJnZ-6eAhfQO-VNr-vx-33" value="" style="line;strokeWidth=1;fillColor=none;align=left;verticalAlign=middle;spacingTop=-1;spacingLeft=3;spacingRight=3;rotatable=0;labelPosition=right;points=[];portConstraint=eastwest;strokeColor=inherit;" parent="UQJnZ-6eAhfQO-VNr-vx-32" vertex="1">
          <mxGeometry y="26" width="240" height="8" as="geometry" />
        </mxCell>
        <mxCell id="UQJnZ-6eAhfQO-VNr-vx-34" value="-connect(machineId, userId)&lt;div&gt;-getInventory(machineId)&lt;/div&gt;&lt;div&gt;-updateStatus(machineId, status)&lt;/div&gt;&lt;div&gt;-notifyIssue(machineId, description)&lt;/div&gt;" style="text;strokeColor=none;fillColor=none;align=left;verticalAlign=top;spacingLeft=4;spacingRight=4;overflow=hidden;rotatable=0;points=[[0,0.5],[1,0.5]];portConstraint=eastwest;whiteSpace=wrap;html=1;" parent="UQJnZ-6eAhfQO-VNr-vx-32" vertex="1">
          <mxGeometry y="34" width="240" height="80" as="geometry" />
        </mxCell>
        <mxCell id="UQJnZ-6eAhfQO-VNr-vx-35" value="MaintenanceService" style="swimlane;fontStyle=1;align=center;verticalAlign=top;childLayout=stackLayout;horizontal=1;startSize=26;horizontalStack=0;resizeParent=1;resizeParentMax=0;resizeLast=0;collapsible=1;marginBottom=0;whiteSpace=wrap;html=1;" parent="WIyWlLk6GJQsqaUBKTNV-1" vertex="1">
          <mxGeometry x="1220" y="1200" width="291" height="104" as="geometry" />
        </mxCell>
        <mxCell id="UQJnZ-6eAhfQO-VNr-vx-36" value="" style="line;strokeWidth=1;fillColor=none;align=left;verticalAlign=middle;spacingTop=-1;spacingLeft=3;spacingRight=3;rotatable=0;labelPosition=right;points=[];portConstraint=eastwest;strokeColor=inherit;" parent="UQJnZ-6eAhfQO-VNr-vx-35" vertex="1">
          <mxGeometry y="26" width="291" height="8" as="geometry" />
        </mxCell>
        <mxCell id="UQJnZ-6eAhfQO-VNr-vx-37" value="assignTask(errorLog:MaintenanceDetectedRecord)&lt;div&gt;-getTasks(workerId)&lt;/div&gt;&lt;div&gt;-completeTask(taskId)&lt;/div&gt;" style="text;strokeColor=none;fillColor=none;align=left;verticalAlign=top;spacingLeft=4;spacingRight=4;overflow=hidden;rotatable=0;points=[[0,0.5],[1,0.5]];portConstraint=eastwest;whiteSpace=wrap;html=1;" parent="UQJnZ-6eAhfQO-VNr-vx-35" vertex="1">
          <mxGeometry y="34" width="291" height="70" as="geometry" />
        </mxCell>
        <mxCell id="UQJnZ-6eAhfQO-VNr-vx-38" value="TransactionService" style="swimlane;fontStyle=1;align=center;verticalAlign=top;childLayout=stackLayout;horizontal=1;startSize=26;horizontalStack=0;resizeParent=1;resizeParentMax=0;resizeLast=0;collapsible=1;marginBottom=0;whiteSpace=wrap;html=1;" parent="WIyWlLk6GJQsqaUBKTNV-1" vertex="1">
          <mxGeometry x="1522.5" y="1200" width="260" height="100" as="geometry" />
        </mxCell>
        <mxCell id="UQJnZ-6eAhfQO-VNr-vx-39" value="" style="line;strokeWidth=1;fillColor=none;align=left;verticalAlign=middle;spacingTop=-1;spacingLeft=3;spacingRight=3;rotatable=0;labelPosition=right;points=[];portConstraint=eastwest;strokeColor=inherit;" parent="UQJnZ-6eAhfQO-VNr-vx-38" vertex="1">
          <mxGeometry y="26" width="260" height="8" as="geometry" />
        </mxCell>
        <mxCell id="UQJnZ-6eAhfQO-VNr-vx-40" value="-createTransaction(userId, machineId, itemId)&lt;div&gt;-getUserTransactions(userId)&lt;/div&gt;&lt;div&gt;-calculateBalance(userId)&lt;/div&gt;" style="text;strokeColor=none;fillColor=none;align=left;verticalAlign=top;spacingLeft=4;spacingRight=4;overflow=hidden;rotatable=0;points=[[0,0.5],[1,0.5]];portConstraint=eastwest;whiteSpace=wrap;html=1;" parent="UQJnZ-6eAhfQO-VNr-vx-38" vertex="1">
          <mxGeometry y="34" width="260" height="66" as="geometry" />
        </mxCell>
        <mxCell id="UQJnZ-6eAhfQO-VNr-vx-41" value="RoutingService" style="swimlane;fontStyle=1;align=center;verticalAlign=top;childLayout=stackLayout;horizontal=1;startSize=26;horizontalStack=0;resizeParent=1;resizeParentMax=0;resizeLast=0;collapsible=1;marginBottom=0;whiteSpace=wrap;html=1;" parent="WIyWlLk6GJQsqaUBKTNV-1" vertex="1">
          <mxGeometry x="2040" y="1200" width="160" height="60" as="geometry" />
        </mxCell>
        <mxCell id="UQJnZ-6eAhfQO-VNr-vx-42" value="" style="line;strokeWidth=1;fillColor=none;align=left;verticalAlign=middle;spacingTop=-1;spacingLeft=3;spacingRight=3;rotatable=0;labelPosition=right;points=[];portConstraint=eastwest;strokeColor=inherit;" parent="UQJnZ-6eAhfQO-VNr-vx-41" vertex="1">
          <mxGeometry y="26" width="160" height="8" as="geometry" />
        </mxCell>
        <mxCell id="UQJnZ-6eAhfQO-VNr-vx-43" value="-generateRoute(workerId)" style="text;strokeColor=none;fillColor=none;align=left;verticalAlign=top;spacingLeft=4;spacingRight=4;overflow=hidden;rotatable=0;points=[[0,0.5],[1,0.5]];portConstraint=eastwest;whiteSpace=wrap;html=1;" parent="UQJnZ-6eAhfQO-VNr-vx-41" vertex="1">
          <mxGeometry y="34" width="160" height="26" as="geometry" />
        </mxCell>
        <mxCell id="UQJnZ-6eAhfQO-VNr-vx-44" value="MachineStatusReporterService" style="swimlane;fontStyle=1;align=center;verticalAlign=top;childLayout=stackLayout;horizontal=1;startSize=26;horizontalStack=0;resizeParent=1;resizeParentMax=0;resizeLast=0;collapsible=1;marginBottom=0;whiteSpace=wrap;html=1;strokeWidth=1;" parent="WIyWlLk6GJQsqaUBKTNV-1" vertex="1">
          <mxGeometry x="2210" y="1200" width="250" height="80" as="geometry" />
        </mxCell>
        <mxCell id="UQJnZ-6eAhfQO-VNr-vx-45" value="" style="line;strokeWidth=1;fillColor=none;align=left;verticalAlign=middle;spacingTop=-1;spacingLeft=3;spacingRight=3;rotatable=0;labelPosition=right;points=[];portConstraint=eastwest;strokeColor=inherit;" parent="UQJnZ-6eAhfQO-VNr-vx-44" vertex="1">
          <mxGeometry y="26" width="250" height="8" as="geometry" />
        </mxCell>
        <mxCell id="UQJnZ-6eAhfQO-VNr-vx-46" value="notifyError(machineId, errorCode, message)&lt;div&gt;-notifyLowInventory(machineId, itemId)&lt;/div&gt;" style="text;strokeColor=none;fillColor=none;align=left;verticalAlign=top;spacingLeft=4;spacingRight=4;overflow=hidden;rotatable=0;points=[[0,0.5],[1,0.5]];portConstraint=eastwest;whiteSpace=wrap;html=1;" parent="UQJnZ-6eAhfQO-VNr-vx-44" vertex="1">
          <mxGeometry y="34" width="250" height="46" as="geometry" />
        </mxCell>
        <mxCell id="UQJnZ-6eAhfQO-VNr-vx-47" value="&amp;lt;&amp;lt;uses&amp;gt;&amp;gt;" style="edgeStyle=orthogonalEdgeStyle;rounded=0;orthogonalLoop=1;jettySize=auto;html=1;entryX=0.551;entryY=0.059;entryDx=0;entryDy=0;entryPerimeter=0;dashed=1;" parent="WIyWlLk6GJQsqaUBKTNV-1" target="UQJnZ-6eAhfQO-VNr-vx-31" edge="1">
          <mxGeometry relative="1" as="geometry">
            <mxPoint x="1921" y="1090" as="sourcePoint" />
          </mxGeometry>
        </mxCell>
        <mxCell id="UQJnZ-6eAhfQO-VNr-vx-48" value="&lt;b&gt;&lt;i&gt;&lt;u&gt;&lt;font style=&quot;font-size: 18px;&quot;&gt;Service&lt;/font&gt;&lt;/u&gt;&lt;/i&gt;&lt;/b&gt;" style="text;html=1;align=center;verticalAlign=middle;resizable=0;points=[];autosize=1;strokeColor=none;fillColor=none;" parent="WIyWlLk6GJQsqaUBKTNV-1" vertex="1">
          <mxGeometry x="1225" y="1155" width="90" height="40" as="geometry" />
        </mxCell>
        <mxCell id="UQJnZ-6eAhfQO-VNr-vx-49" value="&lt;b&gt;&lt;i&gt;&lt;u&gt;&lt;font style=&quot;font-size: 18px;&quot;&gt;Controller&lt;/font&gt;&lt;/u&gt;&lt;/i&gt;&lt;/b&gt;" style="text;html=1;align=center;verticalAlign=middle;resizable=0;points=[];autosize=1;strokeColor=none;fillColor=none;" parent="WIyWlLk6GJQsqaUBKTNV-1" vertex="1">
          <mxGeometry x="1250" y="183" width="110" height="40" as="geometry" />
        </mxCell>
        <mxCell id="UQJnZ-6eAhfQO-VNr-vx-50" value="&lt;b&gt;&lt;i&gt;&lt;u&gt;&lt;font style=&quot;font-size: 17px;&quot;&gt;Business Logic&lt;/font&gt;&lt;/u&gt;&lt;/i&gt;&lt;/b&gt;" style="text;html=1;align=center;verticalAlign=middle;resizable=0;points=[];autosize=1;strokeColor=none;fillColor=none;" parent="WIyWlLk6GJQsqaUBKTNV-1" vertex="1">
          <mxGeometry x="1321" y="120" width="150" height="30" as="geometry" />
        </mxCell>
        <mxCell id="UQJnZ-6eAhfQO-VNr-vx-53" value="&lt;b&gt;&lt;i&gt;&lt;u&gt;&lt;font style=&quot;font-size: 19px;&quot;&gt;DB Infratruscture&lt;/font&gt;&lt;/u&gt;&lt;/i&gt;&lt;/b&gt;" style="text;html=1;align=center;verticalAlign=middle;resizable=0;points=[];autosize=1;strokeColor=none;fillColor=none;" parent="WIyWlLk6GJQsqaUBKTNV-1" vertex="1">
          <mxGeometry x="40" y="900" width="180" height="40" as="geometry" />
        </mxCell>
        <mxCell id="riKNYvi7gMaj98JtQU5Q-187" value="" style="shape=folder;fontStyle=1;spacingTop=10;tabWidth=40;tabHeight=14;tabPosition=left;html=1;whiteSpace=wrap;" parent="WIyWlLk6GJQsqaUBKTNV-1" vertex="1">
          <mxGeometry x="1210" y="1350" width="520" height="190" as="geometry" />
        </mxCell>
        <mxCell id="riKNYvi7gMaj98JtQU5Q-191" value="WorkerRouteDTO" style="swimlane;fontStyle=1;align=center;verticalAlign=top;childLayout=stackLayout;horizontal=1;startSize=26;horizontalStack=0;resizeParent=1;resizeParentMax=0;resizeLast=0;collapsible=1;marginBottom=0;whiteSpace=wrap;html=1;" parent="WIyWlLk6GJQsqaUBKTNV-1" vertex="1">
          <mxGeometry x="1283.5" y="1414" width="160" height="98" as="geometry" />
        </mxCell>
        <mxCell id="riKNYvi7gMaj98JtQU5Q-192" value="-workerId&lt;div&gt;-date&lt;/div&gt;&lt;div&gt;-machineIdsOrdered&lt;/div&gt;" style="text;strokeColor=none;fillColor=none;align=left;verticalAlign=top;spacingLeft=4;spacingRight=4;overflow=hidden;rotatable=0;points=[[0,0.5],[1,0.5]];portConstraint=eastwest;whiteSpace=wrap;html=1;" parent="riKNYvi7gMaj98JtQU5Q-191" vertex="1">
          <mxGeometry y="26" width="160" height="64" as="geometry" />
        </mxCell>
        <mxCell id="riKNYvi7gMaj98JtQU5Q-193" value="" style="line;strokeWidth=1;fillColor=none;align=left;verticalAlign=middle;spacingTop=-1;spacingLeft=3;spacingRight=3;rotatable=0;labelPosition=right;points=[];portConstraint=eastwest;strokeColor=inherit;" parent="riKNYvi7gMaj98JtQU5Q-191" vertex="1">
          <mxGeometry y="90" width="160" height="8" as="geometry" />
        </mxCell>
        <mxCell id="riKNYvi7gMaj98JtQU5Q-194" value="RouteMahcineDTO" style="swimlane;fontStyle=1;align=center;verticalAlign=top;childLayout=stackLayout;horizontal=1;startSize=26;horizontalStack=0;resizeParent=1;resizeParentMax=0;resizeLast=0;collapsible=1;marginBottom=0;whiteSpace=wrap;html=1;" parent="WIyWlLk6GJQsqaUBKTNV-1" vertex="1">
          <mxGeometry x="1490" y="1414" width="160" height="108" as="geometry" />
        </mxCell>
        <mxCell id="riKNYvi7gMaj98JtQU5Q-195" value="-machineId&lt;div&gt;-location&lt;/div&gt;&lt;div&gt;-distanceFromPreviuos&lt;/div&gt;&lt;div&gt;-estimatedTime&lt;/div&gt;" style="text;strokeColor=none;fillColor=none;align=left;verticalAlign=top;spacingLeft=4;spacingRight=4;overflow=hidden;rotatable=0;points=[[0,0.5],[1,0.5]];portConstraint=eastwest;whiteSpace=wrap;html=1;" parent="riKNYvi7gMaj98JtQU5Q-194" vertex="1">
          <mxGeometry y="26" width="160" height="74" as="geometry" />
        </mxCell>
        <mxCell id="riKNYvi7gMaj98JtQU5Q-196" value="" style="line;strokeWidth=1;fillColor=none;align=left;verticalAlign=middle;spacingTop=-1;spacingLeft=3;spacingRight=3;rotatable=0;labelPosition=right;points=[];portConstraint=eastwest;strokeColor=inherit;" parent="riKNYvi7gMaj98JtQU5Q-194" vertex="1">
          <mxGeometry y="100" width="160" height="8" as="geometry" />
        </mxCell>
        <mxCell id="riKNYvi7gMaj98JtQU5Q-215" value="&lt;u&gt;&lt;i&gt;&lt;b&gt;&lt;font style=&quot;font-size: 18px;&quot;&gt;Interface&lt;/font&gt;&lt;/b&gt;&lt;/i&gt;&lt;/u&gt;" style="text;html=1;align=center;verticalAlign=middle;resizable=0;points=[];autosize=1;strokeColor=none;fillColor=none;" parent="WIyWlLk6GJQsqaUBKTNV-1" vertex="1">
          <mxGeometry x="1220" y="1369" width="100" height="40" as="geometry" />
        </mxCell>
        <mxCell id="UQJnZ-6eAhfQO-VNr-vx-54" value="" style="shape=folder;fontStyle=1;tabWidth=50;tabHeight=20;tabPosition=left;html=1;boundedLbl=1;whiteSpace=wrap;" parent="WIyWlLk6GJQsqaUBKTNV-1" vertex="1">
          <mxGeometry x="1870" y="1360" width="670" height="180" as="geometry" />
        </mxCell>
        <mxCell id="UQJnZ-6eAhfQO-VNr-vx-55" value="&lt;b&gt;&lt;i&gt;&lt;u&gt;&lt;font style=&quot;font-size: 18px;&quot;&gt;Utils&lt;/font&gt;&lt;/u&gt;&lt;/i&gt;&lt;/b&gt;" style="text;html=1;align=center;verticalAlign=middle;resizable=0;points=[];autosize=1;strokeColor=none;fillColor=none;" parent="WIyWlLk6GJQsqaUBKTNV-1" vertex="1">
          <mxGeometry x="1880" y="1380" width="60" height="40" as="geometry" />
        </mxCell>
        <mxCell id="UQJnZ-6eAhfQO-VNr-vx-56" value="PasswordUtils" style="swimlane;fontStyle=1;align=center;verticalAlign=top;childLayout=stackLayout;horizontal=1;startSize=26;horizontalStack=0;resizeParent=1;resizeParentMax=0;resizeLast=0;collapsible=1;marginBottom=0;whiteSpace=wrap;html=1;" parent="WIyWlLk6GJQsqaUBKTNV-1" vertex="1">
          <mxGeometry x="1880" y="1423" width="200" height="90" as="geometry" />
        </mxCell>
        <mxCell id="UQJnZ-6eAhfQO-VNr-vx-58" value="" style="line;strokeWidth=1;fillColor=none;align=left;verticalAlign=middle;spacingTop=-1;spacingLeft=3;spacingRight=3;rotatable=0;labelPosition=right;points=[];portConstraint=eastwest;strokeColor=inherit;" parent="UQJnZ-6eAhfQO-VNr-vx-56" vertex="1">
          <mxGeometry y="26" width="200" height="8" as="geometry" />
        </mxCell>
        <mxCell id="UQJnZ-6eAhfQO-VNr-vx-59" value="-hashPasswrd(password)&lt;div&gt;-checkPassword(password, hash)&lt;/div&gt;" style="text;strokeColor=none;fillColor=none;align=left;verticalAlign=top;spacingLeft=4;spacingRight=4;overflow=hidden;rotatable=0;points=[[0,0.5],[1,0.5]];portConstraint=eastwest;whiteSpace=wrap;html=1;" parent="UQJnZ-6eAhfQO-VNr-vx-56" vertex="1">
          <mxGeometry y="34" width="200" height="56" as="geometry" />
        </mxCell>
        <mxCell id="UQJnZ-6eAhfQO-VNr-vx-60" value="DateTimeUtils" style="swimlane;fontStyle=1;align=center;verticalAlign=top;childLayout=stackLayout;horizontal=1;startSize=26;horizontalStack=0;resizeParent=1;resizeParentMax=0;resizeLast=0;collapsible=1;marginBottom=0;whiteSpace=wrap;html=1;" parent="WIyWlLk6GJQsqaUBKTNV-1" vertex="1">
          <mxGeometry x="2090" y="1423" width="160" height="90" as="geometry" />
        </mxCell>
        <mxCell id="UQJnZ-6eAhfQO-VNr-vx-62" value="" style="line;strokeWidth=1;fillColor=none;align=left;verticalAlign=middle;spacingTop=-1;spacingLeft=3;spacingRight=3;rotatable=0;labelPosition=right;points=[];portConstraint=eastwest;strokeColor=inherit;" parent="UQJnZ-6eAhfQO-VNr-vx-60" vertex="1">
          <mxGeometry y="26" width="160" height="8" as="geometry" />
        </mxCell>
        <mxCell id="UQJnZ-6eAhfQO-VNr-vx-63" value="-getCurrentTime()&lt;div&gt;-format(timestamp)&lt;/div&gt;&lt;div&gt;-getDuration(first, second)&lt;/div&gt;" style="text;strokeColor=none;fillColor=none;align=left;verticalAlign=top;spacingLeft=4;spacingRight=4;overflow=hidden;rotatable=0;points=[[0,0.5],[1,0.5]];portConstraint=eastwest;whiteSpace=wrap;html=1;" parent="UQJnZ-6eAhfQO-VNr-vx-60" vertex="1">
          <mxGeometry y="34" width="160" height="56" as="geometry" />
        </mxCell>
        <mxCell id="UQJnZ-6eAhfQO-VNr-vx-64" value="MachineConnectionUtils" style="swimlane;fontStyle=1;align=center;verticalAlign=top;childLayout=stackLayout;horizontal=1;startSize=26;horizontalStack=0;resizeParent=1;resizeParentMax=0;resizeLast=0;collapsible=1;marginBottom=0;whiteSpace=wrap;html=1;" parent="WIyWlLk6GJQsqaUBKTNV-1" vertex="1">
          <mxGeometry x="2260" y="1423" width="260" height="100" as="geometry" />
        </mxCell>
        <mxCell id="UQJnZ-6eAhfQO-VNr-vx-66" value="" style="line;strokeWidth=1;fillColor=none;align=left;verticalAlign=middle;spacingTop=-1;spacingLeft=3;spacingRight=3;rotatable=0;labelPosition=right;points=[];portConstraint=eastwest;strokeColor=inherit;" parent="UQJnZ-6eAhfQO-VNr-vx-64" vertex="1">
          <mxGeometry y="26" width="260" height="8" as="geometry" />
        </mxCell>
        <mxCell id="UQJnZ-6eAhfQO-VNr-vx-67" value="-validateMachineConnection()&lt;div&gt;-generateConnectinToken(userId, machineId)&lt;/div&gt;&lt;div&gt;-parseConnectionToken(token)&lt;/div&gt;" style="text;strokeColor=none;fillColor=none;align=left;verticalAlign=top;spacingLeft=4;spacingRight=4;overflow=hidden;rotatable=0;points=[[0,0.5],[1,0.5]];portConstraint=eastwest;whiteSpace=wrap;html=1;" parent="UQJnZ-6eAhfQO-VNr-vx-64" vertex="1">
          <mxGeometry y="34" width="260" height="66" as="geometry" />
        </mxCell>
        <mxCell id="UQJnZ-6eAhfQO-VNr-vx-69" value="&amp;lt;&amp;lt;use&amp;gt;&amp;gt;" style="endArrow=classic;html=1;rounded=0;exitX=0.927;exitY=1;exitDx=0;exitDy=0;exitPerimeter=0;entryX=0;entryY=0;entryDx=520;entryDy=67;entryPerimeter=0;edgeStyle=orthogonalEdgeStyle;dashed=1;endFill=0;" parent="WIyWlLk6GJQsqaUBKTNV-1" source="UQJnZ-6eAhfQO-VNr-vx-4" target="riKNYvi7gMaj98JtQU5Q-187" edge="1">
          <mxGeometry width="50" height="50" relative="1" as="geometry">
            <mxPoint x="2210" y="950" as="sourcePoint" />
            <mxPoint x="2260" y="900" as="targetPoint" />
            <Array as="points">
              <mxPoint x="2540" y="1090" />
              <mxPoint x="2540" y="1350" />
              <mxPoint x="1810" y="1350" />
              <mxPoint x="1810" y="1417" />
            </Array>
          </mxGeometry>
        </mxCell>
        <mxCell id="UQJnZ-6eAhfQO-VNr-vx-70" value="&amp;lt;&amp;lt;use&amp;gt;&amp;gt;" style="endArrow=block;html=1;rounded=0;entryX=0.998;entryY=0.26;entryDx=0;entryDy=0;entryPerimeter=0;edgeStyle=orthogonalEdgeStyle;dashed=1;endFill=0;exitX=0.983;exitY=1;exitDx=0;exitDy=0;exitPerimeter=0;" parent="WIyWlLk6GJQsqaUBKTNV-1" source="UQJnZ-6eAhfQO-VNr-vx-4" target="UQJnZ-6eAhfQO-VNr-vx-54" edge="1">
          <mxGeometry width="50" height="50" relative="1" as="geometry">
            <mxPoint x="2570" y="1100" as="sourcePoint" />
            <mxPoint x="1780" y="1100" as="targetPoint" />
            <Array as="points">
              <mxPoint x="2580" y="1090" />
              <mxPoint x="2580" y="1410" />
              <mxPoint x="2582" y="1410" />
              <mxPoint x="2582" y="1415" />
            </Array>
          </mxGeometry>
        </mxCell>
        <mxCell id="UQJnZ-6eAhfQO-VNr-vx-71" value="" style="endArrow=block;html=1;rounded=0;endFill=0;dashed=1;edgeStyle=orthogonalEdgeStyle;" parent="WIyWlLk6GJQsqaUBKTNV-1" source="UQJnZ-6eAhfQO-VNr-vx-3" target="riKNYvi7gMaj98JtQU5Q-0" edge="1">
          <mxGeometry width="50" height="50" relative="1" as="geometry">
            <mxPoint x="1000" y="630" as="sourcePoint" />
            <mxPoint x="1050" y="580" as="targetPoint" />
          </mxGeometry>
        </mxCell>
        <mxCell id="UQJnZ-6eAhfQO-VNr-vx-74" value="" style="endArrow=block;html=1;rounded=0;dashed=1;endFill=0;edgeStyle=orthogonalEdgeStyle;" parent="WIyWlLk6GJQsqaUBKTNV-1" source="UQJnZ-6eAhfQO-VNr-vx-3" target="UQJnZ-6eAhfQO-VNr-vx-52" edge="1">
          <mxGeometry width="50" height="50" relative="1" as="geometry">
            <mxPoint x="1000" y="1030" as="sourcePoint" />
            <mxPoint x="1050" y="980" as="targetPoint" />
          </mxGeometry>
        </mxCell>
        <mxCell id="UQJnZ-6eAhfQO-VNr-vx-75" value="" style="endArrow=block;html=1;rounded=0;dashed=1;endFill=0;edgeStyle=orthogonalEdgeStyle;entryX=0.5;entryY=0.062;entryDx=0;entryDy=0;entryPerimeter=0;" parent="WIyWlLk6GJQsqaUBKTNV-1" source="riKNYvi7gMaj98JtQU5Q-0" target="UQJnZ-6eAhfQO-VNr-vx-52" edge="1">
          <mxGeometry width="50" height="50" relative="1" as="geometry">
            <mxPoint x="1000" y="1030" as="sourcePoint" />
            <mxPoint x="1050" y="980" as="targetPoint" />
          </mxGeometry>
        </mxCell>
      </root>
    </mxGraphModel>
  </diagram>
</mxfile>
